General
Complete name                    : Not Another Teen Movie.mkv
Format                           : Matroska
File size                        : 1.35 GiB
Duration                         : 1h 25mn
Overall bit rate                 : 2 267 Kbps
Writing application              : HandBrake 0.9.4

Video
ID                               : 1
Format                           : AVC
Duration                         : 1h 25mn
Bit rate                         : 1 774 Kbps
Width                            : 712 pixels
Height                           : 548 pixels
Display aspect ratio             : 16:9
Resolution                       : 8 bits
Colorimetry                      : 4:2:0
Scan type                        : Progressive
Bits/(Pixel*Frame)               : 0.182
Stream size                      : 1.06 GiB (78%)
Writing library                  : x264 core 79


Audio
ID                               : 2
Format                           : AC-3
Format/Info                      : Audio Coding 3
Codec ID                         : A_AC3
Duration                         : 1h 25mn
Bit rate mode                    : Constant
Bit rate                         : 448 Kbps
Channel(s)                       : 6 channels
Channel positions                : Front: L C R, Side: L R, LFE
Sampling rate                    : 48.0 KHz
Stream size                      : 274 MiB (20%)
Language                         : English

Text #1
Language                         : English

Text #2
Language                         : Arabic

Text #3
Language                         : Bulgarian

Text #4
Language                         : Croatian

Text #5
Language                         : Czech

Text #6
Language                         : Danish

Text #7
Language                         : Finnish

Text #8
Language                         : Greek

Text #9
Language                         : Hebrew

Text #10
Language                         : Hindi

Text #11
Language                         : Hungarian

Text #12
Language                         : Icelandic

Text #13
Language                         : Norwegian

Text #14
Language                         : Polish

Text #15
Language                         : Russian

Text #16
Language                         : Slovenian

Text #17
Language                         : Swedish

Text #18
Language                         : Turkish

Menu
00:00:00.000                     : Chapter 1
00:02:27.440                     : Chapter 2


